<svg id="Layer_1" data-name="Layer 1" xmlns="http://www.w3.org/2000/svg" viewBox="0 0 300 296.95"><defs><style>.cls-1{fill:#fff;}</style></defs><title>Logo</title><rect width="299.81" height="299.81"/><polygon class="cls-1" points="47.62 117.38 47.62 191.59 0 191.59 0.13 117.38 47.62 117.38"/><rect class="cls-1" x="252.81" y="117.37" width="47.19" height="74.22"/><rect class="cls-1" x="153.23" y="117.38" width="95.05" height="74.22"/><rect class="cls-1" x="52.14" y="117.38" width="96.56" height="74.22"/><rect class="cls-1" x="0.52" y="51" width="299.48" height="4.52"/><path class="cls-1" d="M300,241.22v7.59H.13v-7.59H.61A40.38,40.38,0,0,0,41,200.83v-.48H60v.48a40.39,40.39,0,1,0,80.77,0v-.48h19v.48a40.39,40.39,0,0,0,39.9,40.39h.48a40.4,40.4,0,0,0,40.39-40.39v-.48h19v.48a40.38,40.38,0,0,0,40.36,40.39Z"/><path class="cls-1" d="M300,60.53v7.59h-.1a40.38,40.38,0,0,0-40.36,40.39V109h-19v-.48a40.4,40.4,0,0,0-40.39-40.39h-.48a40.4,40.4,0,0,0-39.9,40.39V109h-19v-.48a40.39,40.39,0,1,0-80.77,0V109H41v-.48A40.38,40.38,0,0,0,.61,68.12H.13V60.53Z"/></svg>