<svg id="Layer_1" data-name="Layer 1" xmlns="http://www.w3.org/2000/svg" viewBox="0 0 300 296.95"><defs><style>.cls-1{fill:#fff;}</style></defs><title>Logo</title><rect width="300" height="300"/><polygon class="cls-1" points="196.59 281.94 190.47 266.01 175.76 257.44 173.31 250.08 175.76 250.08 179.44 252.53 175.76 241.51 179.44 231.7 179.44 217 176.99 208.42 183.12 199.85 183.12 193.72 169.64 188.82 168.41 182.69 154.93 170.44 153.71 166.76 148.81 167.99 146.36 163.09 137.78 158.19 126.75 148.38 123.08 149.61 123.08 143.48 110.82 130 110.82 125.1 105.92 123.88 78.97 95.7 76.52 80.99 64.26 68.74 66.71 50.36 72.84 50.36 80.19 58.94 87.54 50.36 97.34 50.36 98.57 46.69 109.6 54.04 120.63 55.26 124.3 51.59 127.98 56.49 132.88 54.04 154.93 56.49 158.61 63.84 167.19 65.06 167.19 52.81 175.76 52.81 174.54 49.13 163.51 43.01 162.28 30.76 159.84 22.18 167.19 16.05 170.86 17.28 179.44 9.93 201.5 9.93 216.2 27.08 219.87 27.08 219.87 40.56 239.48 54.04 235.8 61.39 241.93 62.61 241.93 69.97 248.06 73.64 254.18 74.87 259.08 79.77 270.11 72.42 277.46 77.32 270.11 85.89 277.46 90.8 272.56 100.6 266.44 103.05 266.44 112.85 270.11 118.98 270.11 125.1 279.91 130 279.91 133.68 284.81 138.58 277.46 150.84 268.89 149.61 268.89 163.09 271.34 167.99 266.44 174.12 272.56 181.47 282.36 186.37 284.81 197.4 284.81 213.32 279.91 213.32 278.69 219.45 272.56 223.13 254.18 221.9 244.38 231.7 238.25 230.48 224.78 234.16 227.23 245.18 218.65 250.08 213.75 264.79 205.17 266.01 206.4 274.59 202.72 281.94 196.59 281.94"/></svg>